<svg xmlns="http://www.w3.org/2000/svg" xmlns:xlink="http://www.w3.org/1999/xlink" preserveAspectRatio="xMidYMid" width="51.188" height="51.24" viewBox="0 0 25.594 25.62">
  <defs>
 
  </defs>
  <path d="M22.388,25.610 L3.188,25.610 C1.421,25.610 -0.012,24.177 -0.012,22.409 L-0.012,3.210 C-0.012,1.442 1.421,0.009 3.188,0.009 L22.388,0.009 C24.155,0.009 25.588,1.442 25.588,3.210 L25.588,22.409 C25.588,24.177 24.155,25.610 22.388,25.610 ZM12.788,7.849 C10.792,7.849 9.077,9.031 8.290,10.729 L8.285,10.729 C8.277,10.747 8.271,10.766 8.263,10.784 C8.216,10.889 8.175,10.997 8.135,11.105 C8.116,11.158 8.095,11.209 8.078,11.261 C8.041,11.373 8.011,11.486 7.983,11.601 C7.969,11.654 7.953,11.707 7.941,11.761 C7.915,11.882 7.897,12.005 7.880,12.129 C7.873,12.179 7.863,12.228 7.857,12.279 C7.839,12.453 7.828,12.630 7.828,12.810 C7.828,15.549 10.049,17.769 12.788,17.769 C15.527,17.769 17.748,15.549 17.748,12.810 C17.748,12.630 17.737,12.453 17.719,12.279 C17.713,12.228 17.703,12.179 17.696,12.129 C17.679,12.005 17.661,11.882 17.635,11.761 C17.623,11.707 17.607,11.654 17.593,11.601 C17.565,11.486 17.535,11.373 17.498,11.261 C17.481,11.209 17.460,11.158 17.441,11.105 C17.401,10.997 17.360,10.889 17.313,10.784 C17.305,10.766 17.299,10.747 17.291,10.729 L17.286,10.729 C16.499,9.031 14.784,7.849 12.788,7.849 ZM22.708,4.169 C22.708,3.462 22.135,2.890 21.428,2.890 L18.868,2.890 C18.161,2.890 17.588,3.462 17.588,4.169 L17.588,6.730 C17.588,7.437 18.161,8.010 18.868,8.010 L21.428,8.010 C22.135,8.010 22.708,7.437 22.708,6.730 L22.708,4.169 ZM22.708,10.729 L20.348,10.729 C20.530,11.392 20.628,12.090 20.628,12.810 C20.628,17.140 17.118,20.649 12.788,20.649 C8.458,20.649 4.948,17.140 4.948,12.810 C4.948,12.090 5.046,11.392 5.228,10.729 L2.868,10.729 L2.868,21.449 C2.868,22.157 3.441,22.730 4.148,22.730 L21.428,22.730 C22.135,22.730 22.708,22.157 22.708,21.449 L22.708,10.729 Z" class="cls-1"/>
</svg>
