<svg aria-hidden="true" style="position: absolute; width: 0; height: 0; overflow: hidden;" version="1.1" xmlns="http://www.w3.org/2000/svg" xmlns:xlink="http://www.w3.org/1999/xlink">
<defs>
<symbol id="icon-facebook" viewBox="0 0 15 32">
<title>facebook</title>
<path d="M14.982 0.011c0 1.844 0 5.147 0 5.147s-3.793-0.378-4.744 1.075c-0.52 0.794-0.211 3.123-0.257 4.794 1.656 0 3.376 0 5.032 0-0.425 1.953-0.729 3.277-1.043 4.969-1.433 0-4.017 0-4.017 0v15.992c0 0-4.743 0-6.972 0 0.001-4.93-0.001-10.682 0-15.93-1.083 0-1.884 0-2.966 0 0-1.844 0-3.186 0-5.031 1.050 0 1.882 0 2.934 0 0.15-3.68 0.206-7.324 2.035-9.18 2.053-2.087 4.013-1.836 9.998-1.836z"></path>
</symbol>
<symbol id="icon-instagram" viewBox="0 0 32 32">
<title>instagram</title>
<path d="M27.963 31.988h-23.981c-2.207 0-3.997-1.79-3.997-3.998v-23.98c0-2.208 1.79-3.998 3.997-3.998h23.981c2.207 0 3.997 1.79 3.997 3.998v23.98c0 2.208-1.79 3.998-3.997 3.998zM15.973 9.804c-2.493 0-4.635 1.476-5.618 3.597h-0.006c-0.010 0.022-0.018 0.046-0.027 0.069-0.059 0.131-0.11 0.266-0.16 0.401-0.024 0.066-0.050 0.13-0.071 0.195-0.046 0.14-0.084 0.281-0.119 0.425-0.018 0.066-0.037 0.132-0.052 0.2-0.032 0.151-0.055 0.305-0.076 0.46-0.009 0.062-0.021 0.124-0.029 0.187-0.022 0.217-0.036 0.438-0.036 0.663 0 3.421 2.774 6.194 6.195 6.194s6.195-2.773 6.195-6.194c0-0.225-0.014-0.446-0.036-0.663-0.008-0.064-0.020-0.125-0.029-0.187-0.021-0.155-0.044-0.309-0.076-0.46-0.015-0.067-0.035-0.134-0.052-0.2-0.035-0.144-0.072-0.285-0.119-0.425-0.021-0.065-0.047-0.129-0.071-0.195-0.050-0.135-0.101-0.27-0.16-0.401-0.010-0.022-0.017-0.046-0.027-0.069h-0.006c-0.983-2.121-3.125-3.597-5.618-3.597zM28.363 5.207c0-0.883-0.716-1.598-1.599-1.598h-3.197c-0.883 0-1.599 0.714-1.599 1.598v3.199c0 0.883 0.716 1.599 1.599 1.599h3.197c0.883 0 1.599-0.716 1.599-1.599v-3.199zM28.363 13.401h-2.948c0.227 0.828 0.35 1.7 0.35 2.599 0 5.408-4.384 9.791-9.792 9.791s-9.792-4.383-9.792-9.791c0-0.899 0.122-1.771 0.35-2.599h-2.948v13.39c0 0.884 0.716 1.6 1.599 1.6h21.583c0.883 0 1.599-0.716 1.599-1.6v-13.39z"></path>
</symbol>
<symbol id="icon-MAGNIFYING-GLASS" viewBox="0 0 32 32">
<title>MAGNIFYING-GLASS</title>
<path fill="#fff" d="M31.096 26.862c0.541 0.543 0.877 1.291 0.877 2.119 0 1.656-1.342 2.996-2.996 2.996-0.828 0-1.576-0.336-2.119-0.877v0l-8.78-8.78c-1.783 1.055-3.856 1.669-6.077 1.669-6.618 0-11.983-5.365-11.983-11.983s5.365-11.983 11.983-11.983c6.618 0 11.983 5.365 11.983 11.983 0 2.222-0.616 4.294-1.669 6.077l8.78 8.78zM12.001 3.018c-4.964 0-8.987 4.023-8.987 8.987s4.023 8.987 8.987 8.987c4.964 0 8.987-4.023 8.987-8.987s-4.023-8.987-8.987-8.987z"></path>
</symbol>
<symbol id="icon-pinterest" viewBox="0 0 24 32">
<title>pinterest</title>
<path d="M10.173 20.776c-0.261 1.040-0.525 2.131-0.797 3.198-0.269 1.052-0.506 2.118-0.897 3.085-0.648 1.6-1.471 3.146-2.552 4.398-0.718 0.833-0.566 0.501-0.782 0.456-0.165-0.035-0.179-0.196-0.211-0.431-0.176-1.271-0.056-2.742 0.009-4.171 0.075-1.629 0.417-2.983 0.736-4.335 0.605-2.578 1.182-5.105 1.792-7.699 0.040-0.172 0.15-0.457 0.112-0.556-0.277-0.721-0.457-1.368-0.536-2.125-0.091-0.868-0.021-1.679 0.174-2.427 0.346-1.321 1.14-2.492 2.366-2.92 0.779-0.27 1.642-0.147 2.167 0.165 0.54 0.324 0.911 0.833 1.083 1.556 0.185 0.768 0.049 1.687-0.1 2.362-0.334 1.523-0.772 2.665-1.17 4.134-0.197 0.728-0.421 1.476-0.236 2.263 0.17 0.722 0.546 1.219 1.058 1.593 0.532 0.387 1.162 0.598 2.030 0.568 1.534-0.054 2.599-1.034 3.311-1.958 1.14-1.48 1.83-3.477 2.092-5.853 0.084-0.767 0.146-1.647 0.087-2.516-0.11-1.604-0.611-2.894-1.408-3.893-0.757-0.953-1.831-1.71-3.138-2.137-1.295-0.422-3.088-0.563-4.68-0.291-2.895 0.496-4.936 2.141-6.139 4.413-0.63 1.189-1.045 2.557-1.045 4.259 0 1.313 0.324 2.329 0.847 3.123 0.166 0.251 0.41 0.458 0.572 0.746 0.231 0.407-0.035 1.013-0.149 1.454-0.137 0.531-0.152 1.264-0.772 1.276-0.257 0.005-0.58-0.182-0.797-0.303-1.63-0.901-2.619-2.539-3.025-4.664-0.247-1.292-0.246-2.797 0-4.044 0.237-1.208 0.679-2.321 1.17-3.224 1.017-1.877 2.507-3.379 4.32-4.45 1.394-0.824 2.966-1.403 4.88-1.681 0.634-0.092 1.292-0.131 2.005-0.165 2.083-0.097 3.977 0.375 5.403 1.012 1.505 0.673 2.707 1.569 3.722 2.68 1.047 1.143 1.809 2.472 2.291 4.133 0.252 0.864 0.497 1.789 0.497 2.857 0 1.072-0.226 2.015-0.385 2.958-0.592 3.532-2.272 6.421-4.794 8.066-0.611 0.397-1.35 0.766-2.191 1.010-0.833 0.242-1.784 0.425-2.802 0.353-0.988-0.067-1.797-0.336-2.477-0.721-0.674-0.381-1.242-0.848-1.644-1.554z"></path>
</symbol>
<symbol id="icon-SHOPPING-CART" viewBox="0 0 32 32">
<title>SHOPPING-CART</title>
<path fill="#fff" d="M32.066 8.869l0.002 0.002-4.526 10.057c-0.223 0.496-0.706 0.848-1.274 0.885v0l-13.034 0.869 0.753 2.152h14.192c1.666 0 3.017 1.351 3.017 3.017 0 1.668-1.351 3.017-3.017 3.017s-3.017-1.349-3.017-3.017h-14.080c0 1.668-1.351 3.017-3.017 3.017s-3.017-1.349-3.017-3.017c0-1.666 1.351-3.017 3.017-3.017h2.726l-5.808-16.594h-3.456c-0.834 0-1.509-0.675-1.509-1.509 0-0.832 0.675-1.509 1.509-1.509h4.526c0.658 0 1.212 0.424 1.419 1.013l0.005-0.002 0.878 2.509h22.338c0.834 0 1.509 0.675 1.509 1.509 0 0.221-0.049 0.43-0.135 0.618zM9.412 9.76l2.789 7.967 12.963-0.863 3.196-7.104h-18.948z"></path>
</symbol>
<symbol id="icon-twitter" viewBox="0 0 32 32">
<title>twitter</title>
<path d="M21.859 2.837c2.552-0.045 3.912 0.885 5.209 2.067 1.102-0.094 2.534-0.709 3.377-1.138 0.272-0.148 0.546-0.299 0.819-0.448-0.482 1.301-1.134 2.32-2.138 3.095-0.223 0.171-0.444 0.403-0.724 0.512 0 0.005 0 0.011 0 0.016 1.431-0.014 2.61-0.66 3.731-1.010 0 0.005 0 0.011 0 0.016-0.589 0.935-1.385 1.885-2.235 2.565-0.343 0.272-0.686 0.545-1.029 0.817 0.019 1.515-0.023 2.96-0.305 4.233-1.646 7.398-6.008 12.42-12.912 14.572-2.48 0.772-6.485 1.089-9.326 0.384-1.408-0.349-2.68-0.744-3.874-1.266-0.664-0.29-1.279-0.604-1.866-0.962-0.193-0.117-0.385-0.235-0.579-0.351 0.64 0.019 1.39 0.196 2.106 0.079 0.649-0.104 1.284-0.077 1.882-0.207 1.491-0.328 2.815-0.76 3.954-1.428 0.553-0.324 1.393-0.703 1.786-1.17-0.74 0.013-1.412-0.159-1.961-0.353-2.132-0.753-3.373-2.137-4.181-4.216 0.646 0.072 2.507 0.24 2.943-0.128-0.813-0.045-1.595-0.516-2.155-0.866-1.715-1.073-3.113-2.872-3.103-5.642 0.226 0.107 0.45 0.213 0.675 0.32 0.432 0.182 0.87 0.279 1.383 0.385 0.217 0.045 0.651 0.172 0.901 0.079-0.011 0-0.021 0-0.033 0-0.331-0.385-0.872-0.643-1.206-1.058-1.101-1.367-2.131-3.471-1.48-5.978 0.166-0.636 0.428-1.197 0.708-1.715 0.011 0.005 0.021 0.010 0.033 0.015 0.128 0.269 0.414 0.466 0.595 0.69 0.562 0.696 1.255 1.323 1.961 1.875 2.407 1.882 4.574 3.039 8.055 3.895 0.883 0.218 1.904 0.384 2.959 0.385-0.296-0.862-0.201-2.259 0.031-3.093 0.587-2.101 1.861-3.613 3.731-4.425 0.447-0.193 0.942-0.335 1.463-0.449 0.269-0.031 0.536-0.064 0.804-0.095z"></path>
</symbol>
</defs>
</svg>
